<?xml version="1.0" encoding="UTF-8" standalone="no"?>
<!DOCTYPE svg PUBLIC "-//W3C//DTD SVG 1.1//EN" "http://www.w3.org/Graphics/SVG/1.1/DTD/svg11.dtd">
<svg width="100%" height="100%" viewBox="0 0 1038 946" version="1.1" xmlns="http://www.w3.org/2000/svg" xmlns:xlink="http://www.w3.org/1999/xlink" xml:space="preserve" xmlns:serif="http://www.serif.com/" style="fill-rule:evenodd;clip-rule:evenodd;stroke-linejoin:round;stroke-miterlimit:2;">
    <g transform="matrix(1,0,0,1,-55.9528,-2799.42)">
        <g transform="matrix(1,0,0,1,-1558.38,2761.17)">
            <g transform="matrix(1.02393,-1.249e-16,3.05311e-16,0.899136,-28.1002,18.2622)">
                <g transform="matrix(0.501072,-1.23524e-32,0,0.501072,1029.1,22.9696)">
                    <path d="M1820.66,113.469L1884.74,198.574L1869.16,213.795L1790.09,176.445L1839.8,242.463L1827.95,254.034L1763.87,168.929L1779.99,153.187L1856.77,188.974L1808.71,125.144L1820.66,113.469Z" style="fill:white;fill-rule:nonzero;"/>
                </g>
                <g transform="matrix(0.501072,-1.23524e-32,0,0.501072,1029.1,22.9696)">
                    <path d="M1887.48,85.62L1900.17,114.027L1932.88,95.074L1939.07,108.92L1906.35,127.873L1919.68,157.707L1955.15,137.156L1961.4,151.145L1910.13,180.845L1865.5,80.924L1916.77,51.224L1922.95,65.07L1887.48,85.62Z" style="fill:white;fill-rule:nonzero;"/>
                </g>
                <g transform="matrix(0.501072,-1.23524e-32,0,0.501072,1029.1,22.9696)">
                    <path d="M2063.82,1.935L2070.73,115.352L2046.53,121.988L2011.01,34.703L2014.26,130.836L1989.92,137.51L1950.34,33.054L1967.97,28.218L1999.53,117.25L1996.55,20.382L2018.7,14.308L2055.04,102.028L2047.14,6.509L2063.82,1.935Z" style="fill:white;fill-rule:nonzero;"/>
                </g>
                <g transform="matrix(0.501072,-1.23524e-32,0,0.501072,1029.1,22.9696)">
                    <path d="M2217.68,5.282L2182.1,68.933L2179.15,114.452L2161.34,112.954L2164.29,67.434L2137.18,-1.493L2155.69,0.065L2174.7,52.572L2199.87,3.783L2217.68,5.282Z" style="fill:white;fill-rule:nonzero;"/>
                </g>
                <g transform="matrix(0.501072,-1.23524e-32,0,0.501072,1029.1,22.9696)">
                    <path d="M2282.38,20.356C2290.88,23.016 2297.59,27.111 2302.53,32.643C2307.47,38.174 2310.6,44.72 2311.94,52.28C2313.27,59.84 2312.9,67.944 2310.81,76.592L2304.96,100.837C2302.89,109.382 2299.6,116.489 2295.07,122.158C2290.54,127.827 2284.91,131.628 2278.17,133.561C2271.43,135.493 2263.82,135.129 2255.32,132.469C2246.91,129.838 2240.24,125.73 2235.32,120.148C2230.4,114.565 2227.26,108.019 2225.91,100.51C2224.57,93.002 2224.92,84.975 2226.99,76.43L2232.84,52.185C2234.92,43.537 2238.24,36.353 2242.78,30.632C2247.32,24.912 2252.95,21.111 2259.68,19.23C2266.4,17.349 2273.97,17.724 2282.38,20.356ZM2278.76,35.335C2271.53,33.071 2265.46,33.94 2260.56,37.942C2255.66,41.943 2252.12,48.422 2249.96,57.379L2244,82.087C2241.86,90.941 2242.01,98.489 2244.44,104.731C2246.87,110.973 2251.7,115.226 2258.93,117.49C2266.17,119.754 2272.23,118.911 2277.12,114.961C2282.01,111.011 2285.52,104.609 2287.66,95.755L2293.62,71.047C2295.79,62.09 2295.66,54.465 2293.24,48.171C2290.82,41.878 2285.99,37.599 2278.76,35.335Z" style="fill:white;fill-rule:nonzero;"/>
                </g>
                <g transform="matrix(0.501072,-1.23524e-32,0,0.501072,1029.1,22.9696)">
                    <path d="M2364.71,132.68L2351.66,124.475L2332.84,163.312L2317.32,153.559L2364.9,55.415L2393.96,73.683C2403.07,79.41 2409.25,86.317 2412.51,94.401C2415.76,102.485 2415.44,110.546 2411.55,118.585L2408.01,125.875C2405.43,131.203 2401.81,134.966 2397.16,137.163C2392.51,139.36 2387.2,139.985 2381.23,139.039L2380.73,193.423L2363.74,182.741L2364.71,132.68ZM2358.05,111.296L2371.1,119.501C2375.78,122.442 2380.02,123.583 2383.82,122.923C2387.62,122.264 2390.54,119.831 2392.58,115.624L2395.5,109.596C2397.59,105.296 2397.84,101.126 2396.27,97.087C2394.69,93.047 2391.56,89.556 2386.88,86.615L2373.96,78.488L2358.05,111.296Z" style="fill:white;fill-rule:nonzero;"/>
                </g>
                <g transform="matrix(0.501072,-1.23524e-32,0,0.501072,1029.1,22.9696)">
                    <path d="M2445.23,191.261L2430.79,193.775L2409.96,219.61L2397.53,206.611L2464.11,124.036L2476.54,137.034L2445.82,175.137L2502.96,164.656L2516.73,179.063L2461.49,189.565L2453.98,265.646L2439.17,250.156L2445.23,191.261Z" style="fill:white;fill-rule:nonzero;"/>
                </g>
                <g transform="matrix(0.501072,-1.23524e-32,0,0.501072,1029.1,22.9696)">
                    <path d="M1872.49,876.881L1810.12,963.624L1796.95,951.348L1842.3,888.273L1789.96,923.918L1789.98,924.144L1775.5,910.65L1797.05,842.766L1750.27,907.824L1737.87,896.258L1800.23,809.514L1817.97,826.051L1792.57,904.616L1855.64,861.38L1855.62,861.155L1872.49,876.881Z" style="fill:white;fill-rule:nonzero;"/>
                </g>
                <g transform="matrix(0.501072,-1.23524e-32,0,0.501072,1029.1,22.9696)">
                    <path d="M1921.06,996.296L1890.05,980.341L1872.6,1003.7L1856.32,995.329L1924.28,907.27L1946.19,918.544L1934.5,1035.55L1917.84,1026.97L1921.06,996.296ZM1899.48,967.445L1923.06,979.576L1930.08,925.718L1899.48,967.445Z" style="fill:white;fill-rule:nonzero;"/>
                </g>
                <g transform="matrix(0.501072,-1.23524e-32,0,0.501072,1029.1,22.9696)">
                    <path d="M2020.53,1015.66L2005.93,1012.24L1998.07,1055.69L1980.72,1051.62L2000.56,941.819L2033.07,949.438C2043.26,951.827 2050.97,956.331 2056.19,962.95C2061.4,969.568 2063.2,977.374 2061.57,986.368L2060.1,994.525C2059.02,1000.49 2056.55,1005.3 2052.68,1008.97C2048.81,1012.64 2043.9,1015.04 2037.96,1016.15L2051.66,1068.25L2032.65,1063.8L2020.53,1015.66ZM2008.59,997.496L2023.19,1000.92C2028.43,1002.14 2032.77,1001.8 2036.23,999.886C2039.69,997.971 2041.84,994.66 2042.69,989.954L2043.91,983.209C2044.78,978.398 2043.94,974.331 2041.38,971.006C2038.82,967.681 2034.92,965.406 2029.69,964.179L2015.23,960.789L2008.59,997.496Z" style="fill:white;fill-rule:nonzero;"/>
                </g>
                <g transform="matrix(0.501072,-1.23524e-32,0,0.501072,1029.1,22.9696)">
                    <path d="M2123.39,977.11L2120.41,1058.08L2133.06,1058.68L2132.49,1074.2L2089.49,1072.15L2090.06,1056.63L2102.71,1057.23L2105.68,976.267L2093.03,975.665L2093.6,960.144L2136.6,962.19L2136.03,977.711L2123.39,977.11Z" style="fill:white;fill-rule:nonzero;"/>
                </g>
                <g transform="matrix(0.501072,-1.23524e-32,0,0.501072,1029.1,22.9696)">
                    <path d="M2228.96,969.118L2201.57,972.561L2210.87,1068.55L2193.25,1070.77L2183.95,974.775L2156.41,978.235L2154.92,962.794L2227.47,953.677L2228.96,969.118Z" style="fill:white;fill-rule:nonzero;"/>
                </g>
                <g transform="matrix(0.501072,-1.23524e-32,0,0.501072,1029.1,22.9696)">
                    <path d="M2278.22,954.375L2296.94,1032.56L2309.15,1028.77L2312.74,1043.76L2271.22,1056.65L2267.63,1041.66L2279.84,1037.87L2261.12,959.683L2248.91,963.474L2245.33,948.486L2286.85,935.596L2290.43,950.584L2278.22,954.375Z" style="fill:white;fill-rule:nonzero;"/>
                </g>
                <g transform="matrix(0.501072,-1.23524e-32,0,0.501072,1029.1,22.9696)">
                    <path d="M2401.98,875.181L2447.66,974.487L2432.59,983.479L2399.37,911.27L2407.68,980.076L2407.87,980.143L2391.3,990.028L2344.88,940.883L2379.14,1015.36L2364.94,1023.84L2319.26,924.529L2339.57,912.415L2393.11,969.788L2382.86,886.768L2382.67,886.7L2401.98,875.181Z" style="fill:white;fill-rule:nonzero;"/>
                </g>
                <g transform="matrix(0.501072,-1.23524e-32,0,0.501072,1029.1,22.9696)">
                    <path d="M2456.6,843.888L2475.61,867.283L2502.55,838.897L2511.82,850.301L2484.87,878.686L2504.83,903.257L2534.05,872.478L2543.41,883.999L2501.18,928.482L2434.33,846.188L2476.55,801.706L2485.82,813.11L2456.6,843.888Z" style="fill:white;fill-rule:nonzero;"/>
                </g>
            </g>
        </g>
        <g transform="matrix(1,0,0,1,-1558.38,2761.17)">
            <g transform="matrix(0.997374,-0.0724198,0.0724198,0.997374,-32.3276,178.277)">
                <g transform="matrix(0.298839,-0.337321,0.275555,0.279355,1352.65,813.92)">
                    <path d="M2186.59,126.231L2058.07,112.486C2034.08,151.303 2052.85,200.052 2055.21,210.206C2059.49,228.599 2055.96,256.968 2058.07,266.191L2145.7,271.937L2164.91,209.768M2186.96,128.046C2186.51,127.697 2187.03,127.59 2186.59,127.243M2167.87,209.768C2170.11,201.876 2182.17,194.829 2187.81,194.347C2229.05,190.82 2265.03,260.497 2300.16,292.938L2309.3,276.319C2277.31,224.877 2244.39,170.775 2190.77,128.613" style="fill:white;"/>
                </g>
                <g transform="matrix(0.298839,-0.337321,0.275555,0.279355,1352.65,813.92)">
                    <path d="M1969.01,112.486L1920.17,112.486C1915.85,138.782 1914.91,168.036 1920.17,202.712L1969.01,202.712L1969.01,112.486Z" style="fill:white;"/>
                </g>
                <g transform="matrix(0.357177,-0.403171,0.256408,0.259944,1238.8,947.049)">
                    <path d="M2044.19,114.307C2021.41,138.164 2000.2,141.782 1974.96,118.216L1974.04,209.45C1994.86,192.79 2026.91,193.979 2042.66,217.033C2032.39,183.221 2030.53,146.611 2044.19,114.307Z" style="fill:white;"/>
                </g>
                <g transform="matrix(0.316194,-0.318359,0.273,0.321445,1318.79,760.918)">
                    <path d="M2160.97,844.463C2160.96,873.471 2158.97,903.171 2153.84,934.725C2132.66,961.94 2089.51,977.959 2053.43,978.021C2039.95,903.574 2049.12,826.489 2057.32,727.173L2160.97,844.463ZM2061.72,368.238C2059.73,340.212 2056.92,313.673 2053.05,290.355L2057.22,272.741L2136.19,272.741L2144,289.377C2143.07,293.088 2141.73,297.033 2140.86,301.865C2135.01,334.437 2131.96,383.286 2133,448.901L2061.72,368.238Z" style="fill:white;"/>
                </g>
            </g>
            <g transform="matrix(0.979152,-0.0658142,0.0658142,0.979152,-89.3315,195.199)">
                <g transform="matrix(0.221694,0.302102,-0.259113,0.215347,1913.96,-553.922)">
                    <path d="M2028.09,203.99C2016.78,144.427 2061.23,80.911 2094.98,56.193C2121.21,36.98 2139.48,33.645 2156.53,38.774C2161.7,40.328 2116.99,144.768 2123.05,145.344L2150.66,179.618L2334.96,226.402C2323.05,245.713 2312.85,263.553 2304.2,280.044L2255.08,266.514L2258.09,255.63L2186.44,235.809L2183.41,246.773L2028.09,203.99ZM2029.64,210.817C2029.04,208.549 2028.52,206.272 2028.09,203.99L2029.64,210.817ZM2313.12,801.849L2352.68,1103.01C2355.98,1180.6 2257.64,1189.57 2243.59,1108.85C2243.59,1108.85 2232.32,1029.18 2216.38,921.215L2313.12,801.849ZM2265.39,380.39L2153.52,518.426C2137.18,422.558 2123.17,351.44 2116.38,343.257C2112.9,339.06 2037.79,234.257 2032.33,219.359C2031.29,216.528 2030.39,213.679 2029.64,210.817L2182.03,251.772L2162.64,321.826L2234.29,341.647L2253.82,271.066L2302.11,284.045C2281.78,323.397 2270.38,354.926 2265.39,380.39ZM2275.01,1087.06C2264.05,1102.22 2266.55,1124.12 2280.59,1135.95C2294.63,1147.78 2314.93,1145.08 2325.89,1129.93C2336.84,1114.77 2334.34,1092.87 2320.3,1081.04C2306.26,1069.21 2285.97,1071.91 2275.01,1087.06Z" style="fill:white;"/>
                </g>
                <g transform="matrix(0.221694,0.302102,-0.259113,0.215347,1913.96,-553.922)">
                    <path d="M2227.57,56.711L2236.76,58.09C2270.29,94.58 2282.25,149.263 2286.64,206.452L2236.3,194.385L2205.97,165.885C2215.3,141.165 2216.04,120.998 2212.36,103.174L2227.57,56.711Z" style="fill:white;"/>
                </g>
                <g transform="matrix(0.221694,0.302102,-0.259113,0.215347,1913.96,-553.922)">
                    <path d="M2178.97,184.8L2205.97,168.89L2230.56,195.155L2178.97,184.8Z" style="fill:white;"/>
                </g>
                <g transform="matrix(0.021368,0.0532321,-0.307264,0.121131,2374.38,33.6875)">
                    <path d="M2246.3,261.268L2170.51,261.268L2170.51,312.263L2216.63,313.037L2226.07,324.877L2245.5,326.574L2246.3,261.268Z" style="fill:white;"/>
                </g>
                <g transform="matrix(0.00679508,0.0169279,-0.307264,0.121131,2403.65,106.362)">
                    <path d="M2290.51,261.536L2170.51,261.268L2170.51,312.263L2246.3,312.263L2290.51,261.536Z" style="fill:white;"/>
                </g>
                <g transform="matrix(0.00679508,0.0169279,-0.307264,0.121131,2400.92,100.365)">
                    <path d="M2290.51,261.536L2131.12,261.193L2145.65,311.903L2246.3,312.263L2290.51,261.536Z" style="fill:white;"/>
                </g>
                <g transform="matrix(0.00753653,0.018775,-0.307264,0.121131,2396.59,89.0468)">
                    <path d="M2290.51,261.536L2131.12,261.193L2145.65,311.903L2246.3,312.263L2290.51,261.536Z" style="fill:white;"/>
                </g>
                <g transform="matrix(0.123648,0.356282,-0.317804,0.103455,2146.83,-635.508)">
                    <path d="M2178.97,244.03L2170.87,244.03C2169.02,270.07 2170.27,295.929 2170.87,321.826L2178.97,321.826L2182.72,305.222L2179.83,255.23L2178.97,244.03Z" style="fill:white;"/>
                </g>
                <g transform="matrix(0.123648,0.356282,-0.317804,0.103455,2149.31,-628.423)">
                    <path d="M2178.97,244.03L2170.87,244.03C2169.02,270.07 2170.27,295.929 2170.87,321.826L2178.97,321.826L2182.72,305.222L2179.83,255.23L2178.97,244.03Z" style="fill:white;"/>
                </g>
                <g transform="matrix(0.123648,0.356282,-0.317804,0.103455,2151.81,-622.395)">
                    <path d="M2178.97,244.03L2170.87,244.03C2169.02,270.07 2170.27,295.929 2170.87,321.826L2178.97,321.826L2182.72,305.222L2179.83,255.23L2178.97,244.03Z" style="fill:white;"/>
                </g>
            </g>
        </g>
        <g transform="matrix(1,0,0,1,-1558.38,2761.17)">
            <g transform="matrix(0.501072,0,0,0.501072,895.713,-13.1334)">
                <text x="2255.07px" y="615.756px" style="font-family:'BritannicBold', 'Britannic Bold', sans-serif;font-size:100px;fill:white;">MAKER&apos;S</text>
                <g transform="matrix(100,0,0,100,2561,715.756)">
                </g>
                <text x="2326.87px" y="715.756px" style="font-family:'BritannicBold', 'Britannic Bold', sans-serif;font-size:100px;fill:white;">CLUB</text>
            </g>
        </g>
        <g transform="matrix(1,0,0,1,-1558.38,2761.17)">
            <g transform="matrix(1,0,0,1,1332.33,-2777.32)">
                <text x="495.264px" y="3400.03px" style="font-family:'ArtifaktElement-Bold', 'Artifakt Element', sans-serif;font-weight:700;font-size:60px;fill:white;">Jo<tspan x="563.124px " y="3400.03px ">i</tspan>n the Mak<tspan x="862.464px 896.064px 923.064px " y="3400.03px 3400.03px 3400.03px ">er&apos;</tspan>s Club</text>
                <text x="336.312px" y="3472.03px" style="font-family:'ArtifaktElement-Bold', 'Artifakt Element', sans-serif;font-weight:700;font-size:48px;fill:white;">L<tspan x="361.272px " y="3472.03px ">e</tspan>arn how t<tspan x="603.72px " y="3472.03px ">o</tspan> use a CNC Machine t<tspan x="1104.31px " y="3472.03px ">o</tspan> mak<tspan x="1240.54px " y="3472.03px ">e</tspan></text>
                <text x="286.032px" y="3520.03px" style="font-family:'ArtifaktElement-Bold', 'Artifakt Element', sans-serif;font-weight:700;font-size:48px;fill:white;">parts with wood and f<tspan x="784.08px " y="3520.03px ">o</tspan>am with nothing mor<tspan x="1290.82px " y="3520.03px ">e</tspan></text>
                <text x="531.36px" y="3568.03px" style="font-family:'ArtifaktElement-Bold', 'Artifakt Element', sans-serif;font-weight:700;font-size:48px;fill:white;">than a c<tspan x="710.64px " y="3568.03px ">o</tspan>mput<tspan x="858.144px " y="3568.03px ">e</tspan>r model.</text>
                <text x="280.56px" y="3712.03px" style="font-family:'ArtifaktElement-Bold', 'Artifakt Element', sans-serif;font-weight:700;font-size:48px;fill:white;">W<tspan x="323.232px " y="3712.03px ">o</tspan>rk da<tspan x="465.84px 491.136px " y="3712.03px 3712.03px ">ys</tspan> F<tspan x="552.624px " y="3712.03px ">r</tspan>ida<tspan x="642.864px " y="3712.03px ">y</tspan> at 8:00 AM - 4:00 PM in S&amp;E</text>
                <g transform="matrix(48,0,0,48,929.016,3760.03)">
                </g>
                <text x="674.712px" y="3760.03px" style="font-family:'ArtifaktElement-Bold', 'Artifakt Element', sans-serif;font-weight:700;font-size:48px;fill:white;">R<tspan x="705.384px " y="3760.03px ">o</tspan>om 2<tspan x="841.56px 869.64px " y="3760.03px 3760.03px ">49</tspan>B</text>
            </g>
        </g>
    </g>
</svg>
