<?xml version="1.0" encoding="UTF-8" standalone="no"?>
<!DOCTYPE svg PUBLIC "-//W3C//DTD SVG 1.1//EN" "http://www.w3.org/Graphics/SVG/1.1/DTD/svg11.dtd">
<svg width="100%" height="100%" viewBox="0 0 2285 3113" version="1.1" xmlns="http://www.w3.org/2000/svg" xmlns:xlink="http://www.w3.org/1999/xlink" xml:space="preserve" xmlns:serif="http://www.serif.com/" style="fill-rule:evenodd;clip-rule:evenodd;stroke-linecap:round;stroke-linejoin:round;stroke-miterlimit:2;">
    <g transform="matrix(1,0,0,1,-83.8349,-18.8286)">
        <g transform="matrix(1,0,0,1,-2573.43,-11.0685)">
            <g transform="matrix(1.84298,0,0,1.84298,1429,-1284.14)">
                <path d="M1253.23,1659.87L1253.23,1154.9L1019.86,1148.39C1013.55,1129.02 1012.31,1105.3 1019.86,1074.04L1253.23,1069.47L1253.23,1001.87C1191.99,985.574 1146.68,928.082 1146.68,859.742C1146.68,778.753 1210.31,713 1288.68,713C1367.06,713 1430.69,778.753 1430.69,859.742C1430.69,926.796 1387.07,983.406 1327.58,1000.9L1327.58,1069.6L1554.27,1074.04C1561.82,1105.3 1560.58,1129.02 1554.27,1148.39L1327.58,1154.71L1327.58,1650.82L1285.94,1688.31L1253.23,1659.87ZM1288.68,789.773C1251.31,789.773 1220.97,821.125 1220.97,859.742C1220.97,898.358 1251.31,929.71 1288.68,929.71C1326.06,929.71 1356.4,898.358 1356.4,859.742C1356.4,821.125 1326.06,789.773 1288.68,789.773ZM1327.58,1857.94L1340.58,2197.89C1522.9,2188.19 1678.2,2081.65 1707.92,2032.06C1724.28,2004.75 1658.61,2005.58 1636.21,2009.2C1676.45,1953.79 1742.75,1947.12 1784.41,1922.58C1822,1900.45 1846.07,1859.81 1847.66,1824.98C1920.22,1899.61 1933.3,2020.2 1838.6,2150.58C1838.6,2150.58 1821.84,2064.78 1796.97,2062.3C1772.37,2059.85 1528.21,2306.03 1287.44,2401.47C1287.01,2401.64 1286.57,2401.81 1286.14,2401.98C1285.7,2401.81 1285.27,2401.64 1284.83,2401.47C1044.08,2306.03 799.933,2059.85 775.34,2062.3C750.473,2064.78 733.708,2150.58 733.708,2150.58C639.016,2020.2 652.101,1899.61 724.653,1824.98C726.243,1859.81 750.315,1900.45 787.893,1922.58C829.558,1947.12 895.845,1953.79 936.084,2009.2C913.687,2005.58 848.021,2004.75 864.387,2032.06C894.566,2082.43 1049.67,2191.53 1235.23,2198.27L1253.23,1872.87L1298.19,1832.39L1327.58,1857.94Z"/>
            </g>
            <g transform="matrix(0.164597,0.182748,-0.182716,0.164569,3616.67,-937.53)">
                <path d="M9648.07,7636.46L9682,9578L9682,9617.87L9682.09,9622.93L9683,9643L9683,9670L9684,9700L9684,9732L9685,9767L9685,9802L9684,9837L9682.28,9848.72L9682,9853L9677,9883L9670,9912L9668.57,9916.14L9666,9926L9659.55,9942.31L9653,9960L9649,9969L9642,9983L9640.06,9986.5L9635,9997L9630.23,10004.7L9628,10009L9624.18,10014.6L9619,10023L9607.35,10039.2L9602,10047L9598,10052L9573,10081L9561.08,10091.9L9560,10093L9556.51,10096L9539,10112L9533,10117L9522.84,10124.2L9513,10132L9504.45,10137.3L9502,10139L9496,10143L9463,10162L9421,10180L9411.13,10182.9L9403,10186L9374,10194L9332,10201L9324,10201.7L9314,10203L9289.64,10203.8L9286,10204L9284.74,10203.9L9283,10204L9252,10203L9246.25,10202.2L9241,10202L9196,10195L9193.41,10194.2L9192,10194L9163,10186L9154.06,10182.6L9152,10182L9146,10180L9110,10165L9104,10162L9070,10143L9064,10139L9060.8,10136.8L9053,10132L9047.6,10127.7L9032,10117L8998,10086L8968,10052L8964,10047L8959,10039.7L8947,10023L8942,10015L8941,10014L8937.77,10008L8931,9997L8925.94,9986.5L8924,9983L8920,9975L8913,9960L8909.36,9950.18L8902,9933L8897.3,9915.78L8896,9912L8893.9,9903.3L8890,9889L8884,9853L8883.74,9849.01L8883,9844L8882,9837L8881.58,9822.17L8880,9798L8916.27,7726.21L9648.07,7636.46ZM8929.61,6964.2L8967,4828L8966.04,4756.96L8965.83,4751.83L8960,4679L8951.61,4616.94L8946,4587L8944.18,4578.45L8934.81,4535.71L8923,4493L8909.81,4448.72L8897.1,4414.5L8892,4401L8883,4378.5L8865.21,4337.58L8853,4312L8831,4269L8807.94,4228.65L8805.4,4224.48L8781,4186L8753,4146L8723,4107L8692,4070L8659,4034L8630.25,4005.25L8589,3967L8570.33,3949.35L8552,3933L8540.19,3920.85L8534,3915L8523.68,3903.88L8517,3897L8483,3860L8436,3801L8426.67,3787.22L8422,3781L8394,3739L8368,3696L8344,3652L8322,3607L8303,3561L8297.33,3545.33L8294,3537L8289.44,3523.52L8286,3514L8270,3466L8252,3393L8250,3384L8248.19,3373.29L8247,3368L8239,3319L8233,3269L8232.14,3254.71L8231,3244L8230.6,3229L8230,3219L8229,3169L8230,3119L8231.92,3094.97L8232,3093L8232.31,3090.15L8234,3069L8240,3019L8249,2970L8250.72,2962.34L8254,2945L8258.45,2927.89L8260,2921L8273,2872L8288,2825L8293.14,2811.57L8297,2800L8303.47,2784.6L8306,2778L8313.39,2761L8326,2731L8339.36,2704.68L8348,2687L8352.71,2678.36L8360,2664L8368.14,2650.07L8372,2643L8380.36,2629.18L8398,2599L8441,2538L8489,2479L8540,2424L8595,2373L8654,2326L8667.78,2316.67L8674,2312L8716,2284L8781,2245L8848,2212L8848,3120L9283,3384L9718,3120L9718,2212L9785,2245L9850,2284L9892,2312L9898.22,2316.67L9912,2326L9971,2373L10026,2424L10077,2479L10125,2538L10168,2599L10185.6,2629.18L10194,2643L10197.9,2650.07L10206,2664L10213.3,2678.36L10218,2687L10226.6,2704.68L10240,2731L10252.6,2761L10260,2778L10262.5,2784.6L10269,2800L10272.9,2811.57L10278,2825L10293,2872L10306,2921L10307.5,2927.89L10312,2945L10315.3,2962.34L10317,2970L10326,3019L10332,3069L10333.7,3090.15L10334,3093L10334.1,3094.97L10336,3119L10337,3169L10336,3219L10335.4,3229L10335,3244L10333.9,3254.71L10333,3269L10327,3319L10319,3368L10317.8,3373.29L10316,3384L10314,3393L10296,3466L10280,3514L10276.6,3523.52L10272,3537L10268.7,3545.33L10263,3561L10244,3607L10222,3652L10198,3696L10172,3739L10144,3781L10139.3,3787.22L10130,3801L10083,3860L10049,3897L10042.3,3903.88L10032,3915L10025.8,3920.85L10014,3933L9995.67,3949.35L9977,3967L9935.75,4005.25L9907,4034L9874,4070L9843,4107L9813,4146L9785,4186L9760.6,4224.48L9758.06,4228.65L9735,4269L9713,4312L9700.79,4337.58L9683,4378.5L9674,4401L9668.9,4414.5L9656.19,4448.72L9643,4493L9631.19,4535.71L9621.82,4578.45L9620,4587L9614.39,4616.94L9606,4679L9600.17,4751.83L9599.96,4756.96L9599,4828L9634.82,6877.71L8929.61,6964.2ZM9283,10025L9302.58,10023.9L9317,10022L9332.26,10019.2L9347.14,10015.3L9357.5,10011.8L9364.38,10009.1L9381,10002L9401,9991L9419,9978L9429,9970.22L9439.1,9961.61L9452,9947L9466,9929L9470.8,9921.4L9479.2,9907.6L9485,9896L9491,9882L9491.29,9881.35L9496,9869L9501,9847L9505,9825L9506,9802L9505,9779L9501,9757L9496,9735L9488,9714L9478,9694L9466,9675L9452,9657L9437,9640L9419,9626L9401,9613L9381,9602L9360,9593L9339,9586L9317,9582L9294,9579L9272,9579L9249,9582L9227,9586L9206,9593L9185,9602L9165,9613L9147,9626L9129,9640L9114,9657L9100,9675L9088,9694L9078,9714L9070,9735L9065,9757L9061.35,9777.08L9060.53,9789.73L9060,9802L9061,9825L9065,9847L9070,9869L9075.33,9883L9078,9889L9081,9896L9087,9908L9092,9916.33L9100,9929L9114,9947L9126.78,9961.48L9141,9973.33L9147,9978L9165,9991L9185,10002L9201.62,10009.1L9208.5,10011.8L9218.86,10015.3L9233.74,10019.2L9249,10022L9263.42,10023.9L9283,10025Z" style="stroke:rgb(33,40,48);stroke-opacity:0;stroke-width:7.92px;"/>
            </g>
            <g transform="matrix(1.60684,-1.84865,1.62065,1.40866,-2107.79,2867.63)">
                <path d="M1970.44,1284.97L2022.43,1284.97L2022.43,1386.05L1970.44,1386.05L1970.44,1284.97ZM1774.5,1284.97L1956.27,1284.97L1956.27,1386.05L1774.5,1386.05L1774.5,1284.97ZM1708.33,1284.97L1760.22,1284.97L1760.22,1386.05L1708.33,1386.05L1708.33,1284.97ZM1835.2,1719.51L1836.42,1719.4L1837.1,1719.4L1838.21,1718.95L1838.88,1718.84L1839.77,1718.28L1840.55,1717.95L1841.22,1717.28L1842.01,1716.72L1843.12,1715.27L1844.01,1713.6L1844.12,1713.15L1844.57,1711.7L1844.57,1711.59L1844.79,1709.91L1844.79,1393.86L1885.86,1393.86L1885.86,1709.91L1886.08,1711.59L1886.53,1713.15L1887.19,1714.71L1888.2,1716.16L1889.43,1717.28L1890.77,1718.28L1892.33,1718.95L1894,1719.4L1895.68,1719.51L1895.45,1719.51L1895.45,2123.14L1895.23,2125.82L1894.56,2128.39L1893.56,2130.73L1891.99,2132.96L1890.21,2134.86L1888.09,2136.42L1885.63,2137.53L1880.72,2139.21L1875.7,2140.43L1870.57,2141.1L1865.33,2141.33L1860.19,2141.1L1854.95,2140.43L1849.93,2139.21L1845.02,2137.53L1842.67,2136.42L1840.44,2134.86L1838.66,2132.96L1837.21,2130.73L1836.09,2128.39L1835.42,2125.82L1835.2,2123.14L1835.2,1719.51Z" style="stroke:rgb(33,40,48);stroke-opacity:0;stroke-width:7.92px;"/>
            </g>
        </g>
    </g>
</svg>
